P2
# ../doc/MNT_ASCII.PGM created by PGMA_IO::PGMA_WRITE.
100  95
252
0 0 0 0 0 0 0 0 0 0 0 0
0 0 0 0 0 0 0 0 0 0 0 0
0 0 0 0 0 0 0 0 0 0 0 0
0 0 0 0 0 0 0 0 0 0 0 0
0 0 0 0 0 0 0 0 0 0 0 0
0 0 0 0 0 0 0 0 0 0 72 73
75 0 0 0 0 0 0 0 0 0 0 0
0 0 0 0 0 0 0 0 0 0 0 0
0 0 0 0
0 0 0 0 0 0 0 0
0 0 0 0 0 0 0 0 0 0 0 0
0 0 0 0 0 0 0 0 0 0 0 0
0 0 0 0 0 0 0 0 0 0 0 0
0 0 0 0 0 0 0 0 0 0 0 0
0 0 0 0 0 0 0 0 0 0 0 0
0 52 66 75 75 75 0 0 0 0 0 0
0 0 0 0 0 0 0 0 0 0 0 0
0 0 0 0 0 0 0 0
0 0 0 0
0 0 0 0 0 0 0 0 0 0 0 0
0 0 0 0 0 0 0 0 0 0 0 0
0 0 0 0 0 0 0 0 0 0 0 0
0 0 0 0 0 0 0 0 0 0 0 0
0 0 0 0 0 0 0 0 0 0 0 0
0 0 0 0 0 51 55 73 78 76 74 0
0 0 0 0 0 0 0 0 0 0 0 0
0 0 0 0 0 0 0 0 0 0 0 0
0 0 0 0 0 0 0 0 0 0 0 0
0 0 0 0 0 0 0 0 0 0 0 0
0 0 0 0 0 0 0 0 0 0 0 0
0 0 0 0 0 0 0 0 0 0 0 0
0 0 0 0 0 0 0 0 0 0 0 0
0 0 0 0 0 0 0 0 0 47 53 65
83 78 75 66 0 0 0 0 0 0 0 0
0 0 0 0 0 0 0 0 0 0 0 0
0 0 0 0
0 0 0 0 0 0 0 0
0 0 0 0 0 0 0 0 0 0 0 0
0 0 0 0 0 0 0 0 0 0 0 0
0 0 0 0 0 0 0 0 0 0 0 0
0 0 0 0 0 0 0 0 0 0 0 0
0 0 0 0 0 0 0 0 0 0 0 0
0 32 40 57 76 80 80 74 43 34 0 0
0 0 0 0 0 0 0 0 0 0 0 0
0 0 0 0 0 0 0 0
0 0 0 0
0 0 0 0 0 0 0 0 0 0 0 0
0 0 0 0 0 0 0 0 0 0 0 0
0 0 0 0 0 0 0 0 0 0 0 0
0 0 0 0 0 0 0 0 0 0 0 0
0 0 0 0 0 0 0 0 0 0 0 0
0 0 0 0 0 0 24 48 70 80 82 80
64 32 25 0 0 0 0 0 0 0 0 0
0 0 0 0 0 0 0 0 0 0 0 0
0 0 0 0 0 0 0 0 0 0 0 0
0 0 0 0 0 0 0 0 0 0 0 0
0 0 0 0 0 0 0 0 0 0 0 0
0 0 0 0 0 0 0 0 0 0 0 0
0 0 0 0 0 0 0 0 0 0 0 0
0 0 0 0 0 0 0 0 0 0 10 25
55 69 82 85 82 78 25 25 22 0 0 16
12 12 0 0 0 0 0 0 0 0 0 0
0 0 0 0
0 0 0 0 0 0 0 0
0 0 0 0 0 0 0 0 0 0 0 0
0 0 0 0 0 0 0 0 0 0 0 0
0 0 0 0 0 0 0 0 0 0 0 0
0 0 0 0 0 0 0 0 0 0 0 0
0 0 0 0 0 0 0 0 0 0 0 0
0 0 0 10 25 54 67 83 86 86 80 68
28 25 26 17 7 10 21 15 20 30 25 0
0 0 0 0 0 0 0 0
0 0 0 0
0 0 0 0 0 0 0 0 0 0 0 0
0 0 0 0 0 0 0 0 0 0 0 0
0 0 0 0 0 0 0 0 0 0 0 0
0 0 0 0 0 0 0 0 0 0 0 0
0 0 0 0 0 0 0 0 0 0 0 0
0 0 0 0 0 0 0 0 12 29 44 66
85 89 90 91 88 84 76 82 85 83 81 70
54 42 29 16 13 0 0 0 0 0 0 0
0 0 0 0 0 0 0 0 0 0 0 0
0 0 0 0 0 0 0 0 0 0 0 0
0 0 0 0 0 0 0 0 0 0 0 0
0 0 0 0 0 0 0 0 0 0 0 0
0 0 0 0 0 0 0 0 0 0 0 0
0 0 0 0 0 0 0 0 0 0 0 0
0 14 21 40 54 72 81 90 96 104 96 98
101 104 104 105 101 95 78 60 24 28 0 0
0 0 0 0
0 0 0 0 0 0 0 0
0 0 0 0 0 0 0 0 0 0 0 0
0 0 0 0 0 0 0 0 0 0 0 0
0 0 0 0 0 0 0 0 0 0 0 0
0 0 0 0 0 0 0 0 0 0 0 0
0 0 0 0 0 0 0 0 0 0 0 0
0 0 0 0 0 0 12 17 28 47 56 69
76 86 94 97 96 104 105 108 111 115 111 105
87 66 19 10 0 0 0 0
0 0 0 0
0 0 0 0 0 0 0 0 0 0 0 0
0 0 0 0 0 0 0 0 0 0 0 0
0 0 0 0 0 0 0 0 0 0 0 0
0 0 0 0 0 0 0 0 0 0 0 0
0 0 0 0 0 0 0 0 0 0 0 0
0 0 0 0 0 0 0 0 0 0 0 0
0 13 22 32 42 55 60 68 76 84 88 94
103 110 114 119 112 105 69 9 16 0 0 0
0 0 0 0 0 0 0 0 0 0 0 0
0 0 0 0 0 0 0 0 0 0 0 0
0 0 0 0 0 0 0 0 0 0 0 0
0 0 0 0 0 0 0 0 0 0 0 0
0 0 0 0 0 0 0 0 0 0 0 0
0 0 0 0 0 0 0 0 0 0 0 0
0 0 0 0 0 0 0 0 0 0 11 23
30 49 52 71 87 98 109 115 126 121 104 75
16 15 0 0
0 0 0 0 0 0 0 0
0 0 0 0 0 0 0 0 0 0 0 0
0 0 0 0 0 0 0 0 0 0 0 0
0 0 0 0 0 0 0 0 0 0 0 0
0 0 0 0 0 0 0 0 0 0 0 0
0 0 0 0 0 0 0 0 0 0 0 0
0 0 0 0 0 0 0 0 0 0 0 0
0 0 0 0 0 8 9 23 43 69 88 99
112 117 121 109 62 23 20 0
0 0 0 0
0 0 0 0 0 0 0 0 0 0 0 0
0 0 0 0 0 0 0 0 0 0 0 0
0 0 0 0 0 0 0 0 0 0 0 0
0 0 0 0 0 0 0 0 0 0 0 0
0 0 0 0 0 0 0 0 0 0 0 0
0 0 0 0 0 0 0 0 0 0 0 0
0 0 0 0 0 0 0 0 0 0 0 0
0 20 21 47 65 110 123 122 105 70 21 0
0 0 0 0 0 0 0 0 0 0 0 0
0 0 0 0 0 0 0 0 0 0 0 0
0 0 0 0 0 0 0 0 0 0 0 0
0 0 0 0 0 0 0 0 0 0 0 0
0 0 0 0 0 0 0 0 0 0 0 0
0 0 0 0 0 0 0 0 0 0 0 0
0 0 0 0 0 0 0 0 0 0 0 0
0 0 0 0 0 0 0 11 13 82 105 124
127 88 29 0
0 0 0 0 0 0 0 0
0 0 0 0 0 0 0 0 0 0 0 0
0 0 0 0 0 0 0 0 0 0 0 0
0 0 0 0 0 0 0 0 0 0 0 0
0 0 0 0 0 0 0 0 0 0 0 0
0 0 0 0 0 0 0 0 0 0 0 0
0 0 0 0 0 0 0 0 0 0 0 0
0 0 0 0 0 0 0 0 0 0 0 0
13 51 87 114 125 120 45 17
0 0 0 0
0 0 0 0 0 0 0 0 0 0 0 0
0 0 0 0 0 0 0 0 0 0 0 0
0 0 0 0 0 0 0 0 0 0 0 0
0 0 0 0 0 0 0 0 0 0 0 0
0 0 0 0 0 0 0 0 0 0 0 0
0 0 0 0 0 0 0 0 0 0 0 0
0 0 0 0 0 0 0 0 0 0 0 0
0 0 0 0 21 44 67 105 123 128 94 28
0 0 0 0 0 0 0 0 0 0 0 0
0 0 0 0 0 0 0 0 0 0 0 0
0 0 0 0 0 0 0 0 0 0 0 0
0 0 0 0 0 0 0 0 0 0 0 0
0 0 0 0 0 0 0 0 0 0 0 0
0 0 0 0 0 0 0 0 0 0 0 0
0 0 0 0 0 0 0 0 0 0 0 0
0 0 0 0 0 0 0 0 20 45 62 98
120 132 103 53
0 0 0 0 0 0 0 0
0 0 0 0 0 0 0 0 0 0 0 0
0 0 0 0 0 0 0 0 0 0 0 0
0 0 0 0 0 0 0 0 0 0 0 0
0 0 0 0 0 0 0 0 0 0 0 0
0 0 0 0 0 0 0 0 0 0 0 0
0 0 0 0 0 0 0 0 0 0 0 0
0 0 0 0 0 0 0 0 0 0 0 0
19 31 62 88 123 130 97 51
0 0 0 0
0 0 0 0 0 0 0 0 0 0 0 0
0 0 0 0 0 0 0 0 0 0 0 0
0 0 0 0 0 0 0 0 0 0 0 0
0 0 0 0 0 0 0 0 0 0 0 0
0 0 0 0 0 0 0 0 0 0 0 0
0 0 0 0 0 0 0 0 0 0 0 0
0 0 0 0 0 0 0 0 0 0 0 0
0 0 0 0 16 19 61 100 133 134 54 24
0 0 0 0 0 0 0 0 0 0 0 0
0 0 0 0 0 0 0 0 0 0 0 0
0 0 0 0 0 0 0 0 0 0 0 0
0 0 0 0 0 0 0 0 0 0 0 0
0 0 0 0 0 0 0 0 0 0 0 0
0 0 0 0 0 0 0 0 0 0 0 0
0 0 0 0 0 0 0 0 0 0 0 0
0 0 0 0 0 0 0 0 14 20 73 118
138 130 44 0
0 0 0 0 0 0 0 0
0 0 0 0 0 0 0 0 0 0 0 0
0 0 0 0 0 0 0 0 0 0 0 0
0 0 0 0 0 0 0 0 0 0 0 0
0 0 0 0 0 0 0 0 0 0 0 0
0 0 0 0 0 0 0 0 0 0 0 0
0 0 0 0 0 0 0 0 0 0 0 0
0 0 0 0 0 0 0 0 0 0 0 0
15 36 107 133 137 109 47 0
0 0 0 0
0 0 0 0 0 0 0 0 0 0 0 0
0 0 0 0 0 0 0 0 0 0 0 0
0 0 0 0 0 0 0 0 0 0 0 0
0 0 0 0 0 0 0 0 0 0 0 0
0 0 0 0 0 0 0 0 0 0 0 0
0 0 0 0 0 0 0 0 0 0 0 0
0 0 0 0 0 0 0 0 0 0 0 0
0 0 0 17 36 79 116 141 138 78 31 0
0 0 0 0 0 0 0 0 0 0 0 0
0 0 0 0 0 0 0 0 0 0 0 0
0 0 0 0 0 0 0 0 0 0 0 0
0 0 0 0 0 0 0 0 0 0 0 0
0 0 0 0 0 0 0 0 0 0 0 0
0 0 0 0 0 0 0 0 0 0 0 0
0 0 0 0 0 0 0 0 0 0 0 0
0 0 0 0 0 0 0 31 47 105 138 148
132 76 38 0
0 0 0 0 0 0 0 0
0 0 0 0 0 0 0 0 0 0 0 0
0 0 0 0 0 0 0 0 0 0 0 0
0 0 0 0 0 0 0 0 0 0 0 0
0 0 0 0 0 0 0 0 0 0 0 0
0 0 0 0 0 0 0 0 0 0 0 0
0 0 0 0 0 0 0 0 0 0 0 0
0 0 0 0 0 0 0 0 0 0 23 37
75 131 144 140 125 88 45 0
0 0 0 0
0 0 0 0 0 0 0 0 0 0 0 0
0 0 0 0 0 0 0 0 0 0 0 0
0 0 0 0 0 0 0 0 0 0 0 0
0 0 0 0 0 0 0 0 0 0 0 0
0 0 0 0 0 0 0 0 0 0 0 0
0 0 0 0 0 0 0 0 0 0 0 0
0 0 0 0 0 0 0 0 0 0 0 0
0 0 29 30 81 142 147 139 121 86 51 0
0 0 0 0 0 0 0 0 0 0 0 0
0 0 0 0 0 0 0 0 0 0 0 0
0 0 0 0 0 0 0 0 0 0 0 0
0 0 0 0 0 0 0 0 0 0 0 0
0 0 0 0 0 0 0 0 0 0 0 0
0 0 0 0 0 0 0 0 0 0 0 0
0 0 0 0 0 0 0 0 0 0 0 0
0 0 0 0 0 0 29 32 90 136 149 128
110 75 43 0
0 0 0 0 0 0 0 0
0 0 0 0 0 0 0 0 0 0 0 0
0 0 0 0 0 0 0 0 0 0 0 0
0 0 0 0 0 0 0 0 0 0 0 0
0 0 0 0 0 0 0 0 0 0 0 0
0 0 0 0 0 0 0 0 0 0 0 0
0 0 0 0 0 0 0 0 0 0 0 0
0 0 0 0 0 0 0 0 0 0 33 50
106 140 152 133 105 77 30 0
0 0 0 0
0 0 0 0 0 0 0 0 0 0 0 0
0 0 0 0 0 0 0 0 0 0 0 0
0 0 0 0 0 0 0 0 0 0 0 0
0 0 0 0 0 0 0 0 0 0 0 0
0 0 0 0 0 0 0 0 0 0 0 0
0 0 0 0 0 0 0 0 0 0 0 0
0 0 0 0 0 0 0 0 0 0 0 0
0 0 30 42 98 138 153 136 98 65 22 0
0 0 0 0 0 0 0 0 0 0 0 0
0 0 0 0 0 0 0 0 0 0 0 0
0 0 0 0 0 0 0 0 0 0 0 0
0 0 0 0 0 0 0 0 0 0 0 0
0 0 0 0 0 0 0 0 0 0 0 0
0 0 0 0 0 0 0 0 0 0 0 0
0 0 0 0 0 0 0 0 0 0 0 0
0 0 0 0 0 0 16 20 65 145 152 134
69 57 0 0
0 0 0 0 0 0 0 0
0 0 0 0 0 0 0 0 0 0 0 0
0 0 0 0 0 0 0 0 0 0 0 0
0 0 0 0 0 0 0 0 0 0 0 0
0 0 0 0 0 0 0 0 0 0 0 0
0 0 0 0 0 0 0 0 0 0 0 0
0 0 0 0 0 0 0 0 0 0 0 0
0 0 0 0 0 0 0 0 0 0 22 37
101 150 151 126 92 68 0 0
0 0 0 0
0 0 0 0 0 0 0 0 0 0 0 0
0 0 0 0 0 0 0 0 0 0 0 0
0 0 0 0 0 0 0 0 0 0 0 0
0 0 0 0 0 0 0 0 0 0 0 0
0 0 0 0 0 0 0 0 0 0 0 0
0 0 0 0 0 0 0 0 0 0 0 0
0 0 0 0 0 0 0 0 0 0 0 0
0 18 31 77 120 157 156 105 62 41 0 0
0 0 0 0 0 0 0 0 0 0 0 0
0 0 0 0 0 0 0 0 0 0 0 0
0 0 0 0 0 0 0 0 0 0 0 0
0 0 0 0 0 0 0 0 0 0 0 0
0 0 0 0 0 0 0 0 0 0 0 0
0 0 0 0 0 0 0 0 0 0 0 0
0 0 0 0 0 0 0 0 0 0 0 0
0 0 0 24 31 30 53 116 148 163 142 79
36 0 0 0
0 0 0 0 0 0 0 0
0 0 0 0 0 0 0 0 0 0 0 0
0 0 0 0 0 0 0 0 0 0 0 0
0 0 0 0 0 0 0 0 0 0 0 0
0 0 0 0 0 0 0 0 0 0 0 0
0 0 0 0 0 0 0 0 0 0 0 0
0 0 0 0 0 0 0 0 0 0 0 0
0 0 0 0 0 0 23 31 47 79 128 152
161 157 129 60 0 0 0 0
0 0 0 0
0 0 0 0 0 0 0 0 0 0 0 0
0 0 0 0 0 0 0 0 0 0 0 0
0 0 0 0 0 0 0 0 0 0 0 0
0 0 0 0 0 0 0 0 0 0 0 0
0 0 0 0 0 0 0 0 0 0 0 0
0 0 0 0 0 0 0 0 0 0 0 0
0 0 0 0 0 0 0 0 0 0 30 59
92 121 154 162 166 155 99 47 0 0 0 0
0 0 0 0 0 0 0 0 0 0 0 0
0 0 0 0 0 0 0 0 0 0 0 0
0 0 0 0 0 0 0 0 0 0 0 0
0 0 0 0 0 0 0 0 0 0 0 0
0 0 0 0 0 0 0 0 0 0 0 0
0 0 0 0 0 0 0 0 0 0 0 0
0 0 0 0 0 0 0 0 0 0 0 0
0 38 44 91 120 148 166 167 161 137 74 22
0 0 0 0
0 0 0 0 0 0 0 0
0 0 0 0 0 0 0 0 0 0 0 0
0 0 0 0 0 0 0 0 0 0 0 0
0 0 0 0 0 0 0 0 0 0 0 0
0 0 0 0 0 0 0 0 0 0 0 0
0 0 0 0 0 0 0 0 0 0 0 0
0 0 0 0 0 0 0 0 0 0 0 0
0 0 0 37 36 43 54 120 134 166 170 167
141 115 56 6 0 0 0 0
0 0 0 0
0 0 0 0 0 0 0 0 0 0 0 0
0 0 0 0 0 0 0 0 0 0 0 0
0 0 0 0 0 0 0 0 0 0 0 0
0 0 0 0 0 0 0 0 0 0 0 0
0 0 0 0 0 0 0 0 0 0 0 0
0 0 0 0 0 0 0 0 0 0 0 0
0 0 0 0 0 66 47 40 40 46 85 148
167 170 172 155 122 97 46 0 0 0 0 0
0 0 0 0 0 0 0 0 0 0 0 0
0 0 0 0 0 0 0 0 0 0 0 0
0 0 0 0 0 0 0 0 0 0 0 0
0 0 0 0 0 0 0 0 0 0 0 0
0 0 0 0 0 0 0 0 0 0 0 0
0 0 0 0 0 0 0 0 0 0 0 0
0 0 0 0 0 0 0 0 87 77 82 89
86 92 112 164 171 173 170 140 121 88 40 0
0 0 0 0
0 0 0 0 0 0 0 0
0 0 0 0 0 0 0 0 0 0 0 0
0 0 0 0 0 0 0 0 0 0 0 0
0 0 0 0 0 0 0 0 0 0 0 0
0 0 0 0 0 0 0 0 0 0 0 0
0 0 0 0 0 0 0 0 0 0 0 0
0 0 0 0 0 0 0 0 0 0 0 0
101 106 115 128 141 148 155 176 176 172 147 135
119 82 54 0 0 0 0 0
0 0 0 0
0 0 0 0 0 0 0 0 0 0 0 0
0 0 0 0 0 0 0 0 0 0 0 0
0 0 0 0 0 0 0 0 0 0 0 0
0 0 0 0 0 0 0 0 0 0 0 0
0 0 0 0 0 0 0 0 0 0 0 0
0 0 0 0 0 0 0 0 0 0 0 0
0 0 0 0 89 95 106 112 127 143 171 176
176 152 139 125 105 79 38 0 0 0 0 0
0 0 0 0 0 195 161 161 0 0 0 0
0 0 0 0 0 0 0 0 0 0 0 0
0 0 0 0 0 0 0 0 0 0 0 0
0 0 0 0 0 0 0 0 0 0 0 0
0 0 0 0 0 0 0 0 0 0 0 0
0 0 0 0 0 0 0 0 0 0 0 0
0 0 0 0 0 0 0 0 64 67 72 83
99 115 174 174 165 150 121 112 98 57 29 0
0 0 0 0
0 0 208 219 212 195 195 163
0 0 0 0 0 0 0 0 0 0 0 0
0 0 0 0 0 0 0 0 0 0 0 0
0 0 0 0 0 0 0 0 0 0 0 0
0 0 0 0 0 0 0 0 0 0 0 0
0 0 0 0 0 0 0 0 0 0 0 0
0 0 0 0 0 0 0 0 0 0 0 0
0 31 31 43 57 116 170 173 163 143 111 97
80 53 24 0 0 0 0 0
0 195 207 210
218 214 202 182 171 0 0 0 0 0 0 0
0 0 0 0 0 0 0 0 0 0 0 0
0 0 0 0 0 0 0 0 0 0 0 0
0 0 0 0 0 0 0 0 0 0 0 0
0 0 0 0 0 0 0 0 0 0 0 0
0 0 0 0 0 0 0 0 0 0 0 0
0 0 0 0 0 0 13 20 30 151 182 167
157 137 96 75 59 45 0 0 0 0 0 0
0 188 195 206 217 219 211 195 173 0 0 0
0 0 0 0 0 0 0 0 0 0 0 0
0 0 0 0 0 0 0 0 0 0 0 0
0 0 0 0 0 0 0 0 0 0 0 0
0 0 0 0 0 0 0 0 0 0 0 0
0 0 0 0 0 0 0 0 0 0 0 0
0 0 0 0 0 0 0 0 0 20 29 60
118 173 187 165 164 115 84 50 34 0 0 0
0 0 0 0
0 186 189 196 210 220 215 197
189 178 0 0 0 0 0 0 0 0 0 0
0 0 0 0 0 0 0 0 0 0 0 0
0 0 0 0 0 0 0 0 0 0 0 0
0 0 0 0 0 0 0 0 0 0 0 0
0 0 0 0 0 0 0 0 0 0 0 0
0 0 0 0 0 0 0 0 0 0 0 0
0 28 44 82 136 181 192 178 160 55 41 26
0 0 0 0 0 0 0 0
0 161 178 193
201 219 218 211 195 180 70 51 0 0 0 0
0 0 0 0 0 0 0 0 0 0 0 0
0 0 0 0 0 0 0 0 0 0 0 0
0 0 0 0 0 0 0 0 0 0 0 0
0 0 0 0 0 0 0 0 0 0 0 0
0 0 0 0 0 0 0 0 0 0 0 0
0 0 0 0 0 40 67 95 144 176 191 179
150 90 39 0 0 0 0 0 0 0 0 0
0 164 171 189 202 206 220 215 208 189 130 38
31 0 0 0 0 0 0 0 0 0 0 0
0 0 0 0 0 0 0 0 0 0 0 0
0 0 0 0 0 0 0 0 0 0 0 0
0 0 0 0 0 0 0 0 0 0 0 0
0 0 0 0 0 0 0 0 0 0 0 0
0 0 0 0 0 0 0 0 0 24 70 102
156 182 191 188 145 93 25 0 0 0 0 0
0 0 0 0
98 140 167 180 195 198 220 219
211 196 138 43 29 0 0 0 0 0 0 0
0 0 0 0 0 0 0 0 0 0 0 0
0 0 0 0 0 0 0 0 0 0 0 0
0 0 0 0 0 0 0 0 0 0 0 0
0 0 0 0 0 0 0 0 0 0 0 0
0 0 0 0 0 0 0 0 0 0 0 0
0 26 81 112 158 182 193 188 112 67 20 0
0 0 0 0 0 0 0 0
101 124 147 172
192 196 211 221 213 194 140 39 25 8 0 0
0 0 0 0 0 0 0 0 0 0 0 0
0 0 0 0 0 0 0 0 0 0 0 0
0 0 0 0 0 0 0 0 0 0 0 0
0 0 0 0 0 0 0 0 0 0 0 0
0 0 0 0 0 0 0 0 0 0 0 0
0 0 0 0 0 42 61 109 161 188 195 183
97 68 19 0 0 0 0 0 0 0 0 0
77 99 127 157 174 195 200 214 222 206 131 48
33 10 1 0 0 0 0 0 0 0 0 0
0 0 0 0 0 0 0 0 0 0 0 0
0 0 0 0 0 0 0 0 0 0 0 0
0 0 0 0 0 0 0 0 0 0 0 0
0 0 0 0 0 0 0 0 0 0 0 0
0 0 0 0 0 0 0 0 0 41 45 102
140 191 196 187 87 69 14 0 0 0 0 0
0 0 0 0
69 80 107 140 166 192 198 212
217 220 148 65 52 26 7 10 0 0 0 0
0 0 0 0 0 0 0 0 0 0 0 0
0 0 0 0 0 0 0 0 0 0 0 0
0 0 0 0 0 0 0 0 0 0 0 0
0 0 0 0 0 0 0 0 0 0 0 0
0 0 0 0 0 0 0 0 0 0 0 0
0 30 35 92 135 180 198 197 83 64 18 0
0 0 0 0 0 0 0 0
0 67 97 133
162 182 197 210 214 221 195 88 76 56 35 18
11 0 0 0 0 0 0 0 0 0 0 0
0 0 0 0 0 0 0 0 0 0 0 0
0 0 0 0 0 0 0 0 0 0 0 0
0 0 0 0 0 0 0 0 0 0 0 0
0 0 0 0 0 0 0 0 0 0 0 0
0 0 0 0 0 25 23 86 131 171 198 202
124 69 38 36 0 0 0 0 0 0 0 0
0 50 78 115 138 179 193 201 213 219 212 126
118 98 56 37 11 0 0 0 0 0 0 0
0 0 0 0 0 0 0 0 0 0 0 0
0 0 0 0 0 0 0 0 0 0 0 0
0 0 0 0 0 0 0 0 0 0 0 0
0 0 0 0 0 0 0 0 0 0 0 0
0 0 0 0 0 0 0 0 0 0 32 79
114 160 185 206 188 160 93 31 0 0 0 0
0 0 0 0
0 33 46 70 101 141 185 199
211 217 221 177 173 130 95 55 22 10 0 0
0 0 0 0 0 0 0 0 0 0 0 0
0 0 0 0 0 0 0 0 0 0 0 0
0 0 0 0 0 0 0 0 0 0 0 0
0 0 0 0 0 0 0 0 0 0 0 0
0 0 0 0 0 0 0 0 0 0 0 0
0 0 33 50 98 148 170 206 194 178 107 32
0 0 0 0 0 0 0 0
0 0 25 46
84 122 155 190 206 215 221 193 191 143 113 70
48 14 10 0 0 0 0 0 0 0 0 0
0 0 0 0 0 0 0 0 0 0 0 0
0 0 0 0 0 0 0 0 0 0 0 0
0 0 0 0 0 0 0 0 0 0 0 0
0 0 0 0 0 0 0 0 0 0 0 0
0 0 0 0 0 0 23 29 86 122 163 187
205 199 99 25 0 0 0 0 0 0 0 0
0 0 22 33 67 102 133 174 201 211 220 210
196 164 131 90 65 36 13 0 0 0 0 0
0 0 0 0 0 0 0 0 0 0 0 0
0 0 0 0 0 0 0 0 0 0 0 0
0 0 0 0 0 0 0 0 0 0 0 0
0 0 0 0 0 0 0 0 0 0 0 0
0 0 0 0 0 0 0 0 0 0 0 34
68 108 156 180 211 210 160 16 0 0 0 0
0 0 0 0
0 0 20 30 65 98 155 184
195 203 217 220 195 194 154 115 90 58 36 16
0 0 0 0 0 0 0 0 0 0 0 0
0 0 0 0 0 0 0 0 0 0 0 0
0 0 0 0 0 0 0 0 0 0 0 0
0 0 0 0 0 0 0 0 0 0 0 0
0 0 0 0 0 0 0 0 0 0 0 0
0 0 0 31 50 86 141 171 214 216 172 111
17 0 0 0 0 0 0 0
0 0 27 38
65 121 150 174 194 204 214 225 209 197 174 149
110 81 58 27 25 0 0 0 0 0 0 0
0 0 0 0 0 0 0 0 0 0 0 0
0 0 0 0 0 0 0 0 0 0 0 0
0 0 0 0 0 0 0 0 0 0 0 0
0 0 0 0 0 0 0 0 0 0 0 0
0 0 0 0 0 0 0 0 31 70 109 166
207 213 174 117 32 0 0 0 0 0 0 0
0 0 49 62 89 131 146 167 188 201 213 221
215 195 189 166 129 110 76 46 25 0 0 0
0 0 0 0 0 0 0 0 0 0 0 0
0 0 0 0 0 0 0 0 0 0 0 0
0 0 0 0 0 0 0 0 0 0 0 0
0 0 0 0 0 0 0 0 0 0 0 0
0 0 0 0 0 0 0 0 0 0 0 0
31 53 96 157 207 214 183 131 41 42 0 0
0 0 0 0
0 0 0 54 65 85 105 149
183 201 210 214 218 211 194 178 143 123 91 66
38 19 0 0 0 0 0 0 0 0 0 0
0 0 0 0 0 0 0 0 0 0 0 0
0 0 0 0 0 0 0 0 0 0 0 0
0 0 0 0 0 0 0 0 0 0 0 0
0 0 0 0 0 0 0 0 0 0 0 0
0 0 0 0 37 45 80 148 193 215 200 132
75 44 0 0 0 0 0 0
0 0 0 30
39 65 97 142 169 196 205 213 219 215 194 189
156 135 105 82 50 16 11 0 0 0 0 0
0 0 0 0 0 0 0 0 0 0 0 0
0 0 0 0 0 0 0 0 0 0 0 0
0 0 0 0 0 0 0 0 0 0 0 0
0 0 0 0 0 0 0 0 0 0 0 0
0 0 0 0 0 0 0 0 0 42 94 155
189 218 199 124 64 0 0 0 0 0 0 0
0 0 0 0 23 37 80 117 144 182 198 212
221 218 213 193 166 145 117 92 57 37 12 0
0 0 0 0 0 0 0 0 0 0 0 0
0 0 0 0 0 0 0 0 0 0 0 0
0 0 0 0 0 0 0 0 0 0 0 0
0 0 0 0 0 0 0 0 0 0 0 0
0 0 0 0 0 0 0 0 0 0 0 0
38 36 71 144 202 218 191 109 56 0 0 0
0 0 0 0
0 0 0 0 0 29 56 80
113 137 190 209 220 221 214 195 187 163 131 102
67 46 21 16 0 0 0 0 0 0 0 0
0 0 0 0 0 0 0 0 0 0 0 0
0 0 0 0 0 0 0 0 0 0 0 0
0 0 0 0 0 0 0 0 0 0 0 0
0 0 0 0 0 0 0 0 0 0 0 0
13 9 23 22 33 69 100 109 213 212 176 85
58 0 0 0 0 0 0 0
0 0 0 0
0 0 35 47 82 110 154 196 214 219 218 211
192 169 146 111 78 59 32 17 0 0 0 0
0 0 0 0 0 0 0 0 0 0 0 0
0 0 0 0 0 0 0 0 0 0 0 0
0 0 0 0 0 0 0 0 0 0 0 31
29 27 23 21 19 11 14 11 18 12 28 4
23 15 25 18 36 51 72 115 128 138 164 184
218 183 163 99 0 0 0 0 0 0 0 0
0 0 0 0 0 0 0 20 44 69 115 154
212 211 216 216 193 174 154 120 98 76 58 31
26 0 0 0 0 0 0 0 0 0 0 0
0 0 0 0 0 0 0 0 0 0 0 0
0 0 0 0 0 0 0 0 0 0 0 0
26 29 30 32 33 35 32 29 31 30 31 37
38 36 18 17 12 80 110 136 149 159 174 179
190 197 211 218 223 169 134 49 0 0 0 0
0 0 0 0
0 0 0 0 0 0 0 0
12 41 104 152 212 212 227 207 194 187 169 142
122 92 78 50 29 0 0 0 0 0 0 0
0 0 0 0 0 0 0 0 0 0 0 0
0 0 0 0 0 0 0 0 0 0 0 0
0 0 21 26 27 30 47 57 66 68 67 66
71 76 80 89 99 110 118 122 134 147 167 183
195 209 218 220 221 222 223 224 225 195 118 66
42 44 55 0 0 0 0 0
0 0 0 0
0 0 0 0 7 16 81 140 189 189 220 219
213 189 185 157 136 104 86 57 41 25 0 0
0 0 0 0 0 0 0 0 0 0 0 0
0 0 0 0 0 0 0 0 0 0 0 0
0 0 0 0 0 17 22 26 35 52 74 85
92 96 99 102 112 119 127 133 140 151 172 181
189 202 211 219 222 224 223 220 222 228 229 229
227 217 212 181 129 89 70 68 75 73 0 0
0 0 0 0 0 0 0 0 0 15 44 122
203 207 221 222 220 199 194 176 148 117 93 64
44 21 15 0 0 0 0 0 0 0 0 0
0 0 0 0 0 0 0 0 0 0 0 0
0 0 0 0 0 0 0 0 9 11 26 42
52 66 99 114 117 118 123 129 135 147 161 168
180 196 213 219 224 224 225 225 221 226 232 235
234 231 230 229 229 236 236 215 179 146 126 114
93 78 74 0
0 0 0 0 0 0 0 0
0 23 24 83 145 189 225 226 220 223 200 188
164 144 110 76 53 25 15 14 0 0 0 0
0 47 48 48 39 0 0 0 0 0 0 0
0 0 0 0 0 0 0 0 0 0 8 8
9 21 45 63 76 98 115 128 136 142 145 153
160 174 186 198 215 221 224 225 224 220 229 234
234 231 229 228 226 222 223 223 225 228 228 235
215 204 165 133 109 93 78 0
0 0 0 0
0 0 0 0 0 0 29 46 89 160 201 227
221 228 203 196 179 164 135 113 79 47 31 18
16 20 24 30 36 44 50 53 36 29 26 23
21 0 0 0 0 0 0 0 0 0 0 0
15 11 10 15 35 53 83 101 109 119 138 144
158 163 166 175 184 200 211 221 222 224 221 228
234 234 229 229 227 227 226 225 220 222 221 222
222 220 221 226 233 218 209 164 94 72 55 0
0 0 0 0 0 0 0 0 0 0 0 13
53 126 177 210 226 223 205 203 191 181 162 142
110 80 62 42 31 31 31 33 35 48 61 68
63 52 40 30 21 24 24 20 18 0 0 0
17 19 18 15 16 18 28 44 64 80 104 127
134 140 155 163 172 182 188 202 210 221 224 224
220 232 231 230 228 227 228 227 220 220 219 219
219 219 219 219 219 221 221 217 222 234 224 210
165 102 46 34
0 0 0 0 0 0 0 0
0 0 0 17 27 97 145 204 214 228 225 207
200 190 178 167 140 120 95 78 50 50 46 48
52 61 72 81 83 78 71 59 49 41 28 22
18 17 20 18 17 18 22 30 37 51 62 77
89 107 124 149 160 166 175 181 193 206 214 219
224 221 222 234 233 229 226 226 224 223 220 218
210 208 204 204 203 203 204 206 210 215 220 221
218 227 233 215 204 141 99 29
0 0 0 0
0 0 0 0 0 0 0 0 20 63 109 181
207 227 228 208 207 199 190 179 160 145 122 107
76 75 64 62 66 74 82 96 100 98 89 79
74 61 53 42 38 38 38 38 39 42 47 53
65 83 92 109 119 135 148 171 175 184 189 202
208 220 223 223 227 231 233 228 226 224 220 217
213 210 204 194 187 186 185 191 195 199 201 202
204 207 214 218 222 220 226 229 208 163 118 48
0 0 0 0 0 0 0 0 0 0 0 0
9 54 78 149 195 213 227 212 209 206 200 187
174 164 145 130 102 101 87 83 83 90 97 112
114 111 104 95 90 83 74 64 59 59 58 60
63 65 72 79 94 105 123 138 149 162 170 184
189 202 210 219 222 223 222 228 235 230 225 223
216 200 183 185 183 175 169 167 163 160 161 165
178 186 194 197 202 204 211 217 223 220 218 234
214 174 134 65
0 0 0 0 0 0 0 0
0 0 0 0 0 24 46 88 161 206 216 229
208 209 207 197 189 179 168 150 127 126 114 109
110 111 122 129 128 128 116 108 105 100 95 88
85 85 85 86 89 90 100 111 130 140 152 164
177 183 191 207 210 218 220 221 220 229 234 231
225 222 204 183 163 154 143 146 144 144 141 139
139 140 141 145 151 161 170 183 197 202 208 215
223 220 214 225 217 179 132 66
0 0 0 0
0 0 0 0 0 0 0 0 0 0 38 57
117 161 208 216 228 212 209 206 201 188 180 172
154 152 146 139 137 137 144 148 142 143 132 129
124 119 116 112 110 110 110 110 112 121 129 143
164 169 183 190 200 207 214 219 220 222 220 229
234 232 225 218 205 176 153 125 130 116 104 107
111 117 122 121 123 125 128 133 139 151 160 172
182 199 208 216 224 223 218 227 216 194 126 82
0 0 0 0 0 0 0 0 0 0 0 0
0 0 0 23 66 106 185 209 229 212 212 209
208 201 193 184 180 174 170 164 160 161 162 161
158 155 149 149 147 144 139 137 135 137 138 142
145 155 166 177 193 197 212 205 218 218 218 218
218 228 234 232 227 208 181 169 152 118 96 92
79 79 76 79 82 87 98 100 112 112 108 120
132 146 157 170 177 195 212 214 226 226 224 230
213 157 96 63
0 0 0 0 0 0 0 0
0 0 0 0 0 0 0 0 23 59 142 192
213 229 211 213 210 209 204 193 189 185 182 178
176 174 173 171 172 170 167 171 175 176 174 171
169 170 173 178 185 197 205 216 216 216 212 207
211 231 231 230 232 233 227 216 180 153 115 103
90 68 64 50 39 41 38 34 53 63 71 78
88 92 104 112 133 136 158 172 180 203 220 226
227 227 226 236 182 97 34 0
0 0 0 0
0 0 0 0 0 0 0 0 0 0 0 0
9 18 91 147 206 213 229 221 213 210 210 206
200 193 190 186 184 183 182 182 186 188 188 196
208 206 204 204 205 207 208 214 215 215 214 212
220 226 231 222 225 226 232 227 221 214 187 161
116 89 37 31 36 0 0 0 0 0 0 0
0 36 47 54 65 75 90 101 124 139 158 174
188 215 227 228 228 227 231 213 134 66 35 0
0 0 0 0 0 0 0 0 0 0 0 0
0 0 0 0 0 23 25 96 174 204 214 228
224 211 211 210 209 206 203 197 194 194 192 194
199 205 208 210 215 214 217 217 214 212 222 225
227 232 234 234 231 235 229 235 234 227 225 190
175 155 119 94 42 0 0 0 0 0 0 0
0 0 0 0 0 0 0 0 53 59 83 105
131 144 164 178 210 224 229 228 226 235 225 160
127 0 0 0
0 0 0 0 0 0 0 0
0 0 0 0 0 0 0 0 0 0 6 54
97 167 204 211 228 229 210 215 212 212 211 210
208 207 207 209 210 213 214 219 220 217 212 224
233 234 233 234 228 227 224 224 224 224 220 205
215 186 168 140 117 80 58 23 0 0 0 0
0 0 0 0 0 0 0 0 0 0 0 0
33 41 72 110 129 154 173 195 213 212 226 227
235 227 171 131 66 0 0 0
0 0 0 0
0 0 0 0 0 0 0 0 0 0 0 0
0 0 0 23 42 112 152 204 212 225 229 218
215 214 214 214 214 215 215 217 217 218 216 212
225 232 232 228 226 226 225 222 221 221 221 219
213 198 185 161 146 114 93 69 37 0 0 0
0 0 0 0 0 0 0 0 0 0 0 0
0 0 0 19 23 47 79 112 134 165 185 209
212 224 236 236 229 212 126 74 0 0 0 0
0 0 0 0 0 0 0 0 0 0 0 0
0 0 0 0 0 0 0 0 20 54 91 152
190 209 214 229 229 213 210 211 212 212 211 211
212 226 230 232 226 222 222 218 212 211 210 210
206 199 189 177 154 136 116 97 71 41 0 0
0 0 0 0 0 0 0 0 0 0 0 0
0 0 0 0 0 0 25 22 32 65 85 120
144 183 205 213 225 228 225 223 208 175 73 0
0 0 0 0
0 0 0 0 0 0 0 0
0 0 0 0 0 0 0 0 0 0 0 0
0 19 27 86 127 172 200 211 224 231 230 230
230 231 231 231 231 229 224 214 211 201 198 175
164 167 160 152 144 128 107 98 85 66 43 22
0 0 0 0 0 0 0 0 0 0 0 0
0 0 0 0 0 0 0 0 0 19 25 28
34 70 90 125 160 208 224 232 236 228 214 213
170 118 68 0 0 0 0 0
0 0 0 0
0 0 0 0 0 0 0 0 0 0 0 0
0 0 0 0 0 0 0 25 56 101 130 163
182 207 208 210 213 213 211 211 210 206 182 170
151 130 121 112 100 88 84 76 71 51 36 24
0 0 0 0 0 0 0 0 0 0 0 0
0 0 0 0 0 0 0 0 0 0 0 0
25 26 26 41 98 137 169 199 221 235 233 221
217 212 209 156 105 58 0 0 0 0 0 0
0 0 0 0 0 0 0 0 0 0 0 0
0 0 0 0 0 0 0 0 0 0 0 0
10 23 54 89 109 144 146 158 163 168 172 154
138 128 105 92 75 61 38 33 27 15 0 0
0 0 0 0 0 0 0 0 0 0 0 0
0 0 0 0 0 0 0 0 0 0 0 0
0 0 0 0 23 34 69 104 165 166 209 222
236 229 227 221 204 185 163 83 59 0 0 0
0 0 0 0
0 0 0 0 0 0 0 0
0 0 0 0 0 0 0 0 0 0 0 0
0 0 0 0 0 0 0 14 33 58 61 80
84 89 85 74 57 46 31 0 0 0 0 0
0 0 0 0 0 0 0 0 0 0 0 0
0 0 0 0 0 0 0 0 0 0 0 0
0 0 0 0 0 0 0 0 0 71 114 146
175 208 230 235 229 229 228 205 183 153 101 54
0 0 0 0 0 0 0 0
0 0 0 0
0 0 0 0 0 0 0 0 0 0 0 0
0 0 0 0 0 0 0 0 0 0 0 0
0 0 0 0 5 11 0 0 0 0 0 0
0 0 0 0 0 0 0 0 0 0 0 0
0 0 0 0 0 0 0 0 0 0 0 0
0 0 0 0 0 0 0 0 0 0 0 0
0 145 151 188 217 233 229 229 230 229 226 204
156 105 63 0 0 0 0 0 0 0 0 0
0 0 0 0 0 0 0 0 0 0 0 0
0 0 0 0 0 0 0 0 0 0 0 0
0 0 0 0 0 0 0 0 0 0 0 0
0 0 0 0 0 0 0 0 0 0 0 0
0 0 0 0 0 0 0 0 0 0 0 0
0 0 0 0 0 0 0 0 0 0 0 0
0 0 0 0 0 0 206 210 236 223 229 228
230 228 192 161 94 72 0 0 0 0 0 0
0 0 0 0
0 0 0 0 0 0 0 0
0 0 0 0 0 0 0 0 0 0 0 0
0 0 0 0 0 0 0 0 0 0 0 0
0 0 0 0 0 0 0 0 0 0 0 0
0 0 0 0 0 0 0 0 0 0 0 0
0 0 0 0 0 0 0 0 0 0 0 0
0 0 0 0 0 0 0 0 0 0 0 252
232 222 231 234 222 187 109 103 59 0 0 0
0 0 0 0 0 0 0 0
0 0 0 0
0 0 0 0 0 0 0 0 0 0 0 0
0 0 0 0 0 0 0 0 0 0 0 0
0 0 0 0 0 0 0 0 0 0 0 0
0 0 0 0 0 0 0 0 0 0 0 0
0 0 0 0 0 0 0 0 0 0 0 0
0 0 0 0 0 0 0 0 0 0 0 0
0 0 0 0 121 222 220 213 187 120 87 0
0 0 0 0 0 0 0 0 0 0 0 0
0 0 0 0 0 0 0 0 0 0 0 0
0 0 0 0 0 0 0 0 0 0 0 0
0 0 0 0 0 0 0 0 0 0 0 0
0 0 0 0 0 0 0 0 0 0 0 0
0 0 0 0 0 0 0 0 0 0 0 0
0 0 0 0 0 0 0 0 0 0 0 0
0 0 0 0 0 0 0 0 147 218 208 150
121 72 0 0 0 0 0 0 0 0 0 0
0 0 0 0
0 0 0 0 0 0 0 0
0 0 0 0 0 0 0 0 0 0 0 0
0 0 0 0 0 0 0 0 0 0 0 0
0 0 0 0 0 0 0 0 0 0 0 0
0 0 0 0 0 0 0 0 0 0 0 0
0 0 0 0 0 0 0 0 0 0 0 0
0 0 0 0 0 0 0 0 0 0 0 0
0 185 157 119 105 0 0 0 0 0 0 0
0 0 0 0 0 0 0 0
